<svg version="1.1" id="Layer_1" xmlns="http://www.w3.org/2000/svg" xmlns:xlink="http://www.w3.org/1999/xlink" x="0px" y="0px"
	 width="100%" viewBox="0 0 512 512" enable-background="new 0 0 512 512" xml:space="preserve">
<path fill="#000000" opacity="1.000000" stroke="none" 
	d="
M285.000000,1.000000 
	C360.926727,1.000000 436.853424,1.000000 513.000000,1.000000 
	C513.000000,76.020752 513.000000,151.041718 512.627136,226.733444 
	C511.780792,225.602554 511.307312,223.800919 510.881866,221.589294 
	C509.231537,213.119003 507.533173,205.058701 505.900635,196.602051 
	C503.658478,188.766418 501.350525,181.327133 499.022156,173.504974 
	C497.017059,168.043976 495.032318,162.965851 493.015045,157.522629 
	C490.691772,152.422501 488.401062,147.687485 486.055176,142.590057 
	C483.371460,137.471237 480.742920,132.714828 477.963562,127.638252 
	C474.892578,122.844147 471.972412,118.370186 469.014587,113.546394 
	C466.356323,109.783798 463.735687,106.371033 461.053040,102.611885 
	C458.344391,99.142715 455.697845,96.019928 452.912598,92.585625 
	C449.127350,88.183319 445.480804,84.092529 441.769836,79.659454 
	C438.842255,76.865158 435.979126,74.413132 432.975037,71.654167 
	C428.906250,67.864098 424.978333,64.380959 420.912018,60.589577 
	C414.199493,55.485462 407.625366,50.689602 400.907715,45.580704 
	C389.554626,38.830482 378.345093,32.393295 367.041016,25.706669 
	C366.637756,25.353758 366.328949,25.250284 365.755920,25.095623 
	C365.316772,25.084436 365.141846,25.124437 364.645203,24.999592 
	C358.245972,22.209919 352.274445,19.297180 346.071198,17.013817 
	C326.836090,9.933537 307.163208,4.589026 286.627838,2.893627 
	C286.037140,2.844859 285.540497,1.656825 285.000000,1.000000 
z"/>
<path fill="#000000" opacity="1.000000" stroke="none" 
	d="
M1.000000,223.000000 
	C1.000000,149.072144 1.000000,75.144295 1.000000,1.000000 
	C76.354088,1.000000 151.708389,1.000000 227.836685,1.357951 
	C227.933853,2.129024 227.301529,2.785807 226.573517,2.918804 
	C215.238373,4.989576 203.788895,6.547861 192.571167,9.120131 
	C177.435303,12.590849 162.791779,17.698017 148.585114,24.939957 
	C140.554199,28.981840 132.752335,32.733418 125.271362,37.042133 
	C120.241066,39.939365 115.664719,43.624763 110.531525,46.983704 
	C104.434105,51.301338 98.690437,55.592815 92.640518,60.027672 
	C88.184273,64.101028 84.034271,68.031006 79.581268,72.093582 
	C76.480537,75.136772 73.682800,78.047363 70.581085,81.092178 
	C66.813591,85.137360 63.350079,89.048332 59.576893,93.099640 
	C56.806801,96.479446 54.346382,99.718910 51.585129,103.120316 
	C49.173473,106.485275 47.062653,109.688278 44.643887,113.058868 
	C40.613518,119.483681 36.891087,125.740891 33.009377,132.315491 
	C30.622421,136.754639 28.394749,140.876404 26.005424,145.322571 
	C23.284773,151.430664 20.725773,157.214401 17.994049,163.336334 
	C15.513096,170.769714 13.204869,177.864899 10.574629,185.170609 
	C8.795412,191.908356 7.338211,198.435593 5.550984,205.189850 
	C4.444759,211.265564 3.668560,217.114227 2.518442,223.138443 
	C1.763016,223.209320 1.381508,223.104660 1.000000,223.000000 
z"/>
<path fill="#000000" opacity="1.000000" stroke="none" 
	d="
M513.000000,288.000000 
	C513.000000,362.926361 513.000000,437.852753 513.000000,513.000000 
	C439.645935,513.000000 366.291626,513.000000 292.327881,512.598633 
	C294.482269,511.469879 297.206970,510.489075 300.016144,510.056183 
	C319.083832,507.117859 337.538269,502.117645 355.477173,494.009583 
	C360.464752,491.972656 365.269867,490.312653 369.660461,487.898773 
	C377.585175,483.541840 385.262024,478.734070 393.399963,474.056549 
	C398.521881,470.700836 403.286194,467.403168 408.400879,464.050781 
	C415.207550,458.676636 421.663849,453.357147 428.412598,447.901764 
	C430.174744,446.191620 431.644409,444.617340 433.421082,442.900452 
	C437.858521,438.518158 441.988953,434.278412 446.420227,429.895508 
	C450.185638,425.515900 453.650177,421.279419 457.418762,416.896484 
	C460.420471,413.165344 463.118164,409.580688 465.980469,405.689636 
	C468.041473,402.587372 469.937866,399.791443 471.994415,396.684631 
	C475.815613,390.267792 479.476715,384.161835 483.440063,377.877350 
	C485.764587,373.461121 487.786896,369.223419 489.896637,364.624695 
	C491.934113,359.508545 493.884125,354.753418 496.004333,349.666016 
	C498.051086,344.216553 499.927612,339.099304 501.883972,333.590851 
	C503.013550,328.814606 504.063293,324.429565 505.432220,319.824951 
	C506.770203,315.069305 507.789001,310.533203 508.884155,305.577179 
	C509.647919,300.034302 510.271881,294.901093 511.098175,289.800598 
	C511.209137,289.115692 512.340942,288.596100 513.000000,288.000000 
z"/>
<path fill="#000000" opacity="1.000000" stroke="none" 
	d="
M221.000000,513.000000 
	C147.739471,513.000000 74.478943,513.000000 1.000000,513.000000 
	C1.000000,439.645905 1.000000,366.291626 1.392074,292.295807 
	C2.578210,294.768890 3.372271,297.883514 4.101717,301.408752 
	C5.080310,306.878845 6.123519,311.938263 7.240349,317.374207 
	C8.931478,323.166321 10.548985,328.581940 12.113452,334.379028 
	C14.358766,340.869385 16.657120,346.978210 18.989134,353.459778 
	C22.071657,360.552673 25.120518,367.272888 28.218388,374.338684 
	C31.900784,380.788757 35.534176,386.893219 39.215408,393.339722 
	C42.491207,398.155426 45.719158,402.629120 48.985733,407.452606 
	C51.325226,410.891815 53.626091,413.981262 56.068398,417.375183 
	C60.122059,422.153900 64.034286,426.628143 68.088226,431.402405 
	C72.806404,436.175446 77.382881,440.648499 82.097984,445.418030 
	C83.789436,446.827240 85.342262,447.939941 87.042549,449.356689 
	C93.225174,454.644012 99.260338,459.627228 105.598526,464.777130 
	C110.583702,467.997192 115.265854,471.050568 120.100983,474.413300 
	C132.804199,481.168732 145.354446,487.614838 158.107819,494.370789 
	C158.956940,494.818634 159.642059,494.861481 160.243225,495.108551 
	C177.507004,502.205017 195.251526,507.536804 213.787338,510.154480 
	C216.275894,510.505920 218.599838,512.022766 221.000000,513.000000 
z"/>
<path fill="#04AED0" opacity="1.000000" stroke="none" 
	d="
M148.950729,24.886763 
	C162.791779,17.698017 177.435303,12.590849 192.571167,9.120131 
	C203.788895,6.547861 215.238373,4.989576 226.573517,2.918804 
	C227.301529,2.785807 227.933853,2.129024 228.305344,1.357951 
	C246.687561,1.000000 265.375122,1.000000 284.531342,1.000000 
	C285.540497,1.656825 286.037140,2.844859 286.627838,2.893627 
	C307.163208,4.589026 326.836090,9.933537 346.071198,17.013817 
	C352.274445,19.297180 358.245972,22.209919 364.305359,25.168701 
	C361.345612,25.999186 358.404572,26.925478 355.462372,26.929142 
	C288.558014,27.012491 221.653488,27.012629 154.749176,26.907803 
	C152.815308,26.904774 150.883499,25.589943 148.950729,24.886763 
z"/>
<path fill="#3E7CB7" opacity="1.000000" stroke="none" 
	d="
M513.000000,287.549988 
	C512.340942,288.596100 511.209137,289.115692 511.098175,289.800598 
	C510.271881,294.901093 509.647919,300.034302 508.427856,305.577484 
	C462.004181,305.998077 416.113098,306.015411 370.222168,305.951172 
	C367.802551,305.947784 365.383942,305.253326 363.166473,304.571106 
	C380.117035,298.666992 396.103668,291.700958 409.358093,278.970520 
	C444.222717,278.985291 478.611359,278.992645 513.000000,279.000000 
	C513.000000,281.700012 513.000000,284.400024 513.000000,287.549988 
z"/>
<path fill="#3186BD" opacity="1.000000" stroke="none" 
	d="
M510.833832,221.999283 
	C511.307312,223.800919 511.780792,225.602554 512.627136,227.202103 
	C513.000000,234.687576 513.000000,242.375168 512.531372,250.531403 
	C483.712952,251.000275 455.363159,250.971237 427.013611,251.044235 
	C424.063843,251.051834 421.115631,251.664673 418.090393,251.624298 
	C416.658997,248.319260 415.525696,245.257248 413.905518,242.479187 
	C409.695404,235.260178 403.207672,230.353851 396.460602,225.703476 
	C395.289642,224.896393 394.714722,223.224503 394.341614,221.961487 
	C433.490417,221.980392 472.162109,221.989838 510.833832,221.999283 
z"/>
<path fill="#6956A4" opacity="1.000000" stroke="none" 
	d="
M221.468658,513.000000 
	C218.599838,512.022766 216.275894,510.505920 213.787338,510.154480 
	C195.251526,507.536804 177.507004,502.205017 160.243225,495.108551 
	C159.642059,494.861481 158.956940,494.818634 158.519958,494.270447 
	C161.194611,493.573395 163.660080,493.037903 166.125961,493.036011 
	C226.674011,492.989410 287.222137,492.987213 347.770203,493.043610 
	C350.216370,493.045898 352.661957,493.697632 355.107819,494.046753 
	C337.538269,502.117645 319.083832,507.117859 300.016144,510.056183 
	C297.206970,510.489075 294.482269,511.469879 291.859253,512.598633 
	C268.645782,513.000000 245.291550,513.000000 221.468658,513.000000 
z"/>
<path fill="#3880B9" opacity="1.000000" stroke="none" 
	d="
M418.166718,251.996674 
	C421.115631,251.664673 424.063843,251.051834 427.013611,251.044235 
	C455.363159,250.971237 483.712952,251.000275 512.531372,251.000031 
	C513.000000,260.020905 513.000000,269.041779 513.000000,278.531342 
	C478.611359,278.992645 444.222717,278.985291 409.507751,278.663849 
	C416.409119,271.008545 420.277405,262.521881 418.166718,251.996674 
z"/>
<path fill="#3A7FB9" opacity="1.000000" stroke="none" 
	d="
M1.000000,286.000000 
	C1.000000,278.979034 1.000000,271.958099 1.468657,264.468323 
	C33.247391,264.002838 64.557472,264.006195 95.930695,264.379761 
	C98.738312,273.207245 104.170494,279.653656 110.703255,285.058289 
	C107.486092,285.433746 104.684746,285.958344 101.882515,285.963074 
	C68.255081,286.020050 34.627525,285.999939 1.000000,286.000000 
z"/>
<path fill="#3485BB" opacity="1.000000" stroke="none" 
	d="
M95.867546,264.009583 
	C64.557472,264.006195 33.247391,264.002838 1.468657,263.999756 
	C1.000000,256.645752 1.000000,249.291504 1.468657,241.468628 
	C34.664230,241.013306 67.391151,241.026611 100.059677,241.401855 
	C95.320145,248.565247 93.616547,255.919998 95.867546,264.009583 
z"/>
<path fill="#3186BD" opacity="1.000000" stroke="none" 
	d="
M100.118065,241.039932 
	C67.391151,241.026611 34.664230,241.013306 1.468657,241.000000 
	C1.000000,235.311966 1.000000,229.623917 1.000000,223.467941 
	C1.381508,223.104660 1.763016,223.209320 2.951136,223.131073 
	C6.388809,222.634811 9.019377,222.053513 11.651003,222.048676 
	C45.521198,221.986420 79.391670,221.971802 113.261513,222.096085 
	C115.188652,222.103149 117.110977,223.417984 118.867973,224.421448 
	C112.506287,230.159134 106.312172,235.599533 100.118065,241.039932 
z"/>
<path fill="#3E7CB7" opacity="1.000000" stroke="none" 
	d="
M1.000000,286.428467 
	C34.627525,285.999939 68.255081,286.020050 101.882515,285.963074 
	C104.684746,285.958344 107.486092,285.433746 111.010643,285.200958 
	C120.168884,290.127930 128.604340,295.004608 136.846710,300.221863 
	C134.477158,301.041534 132.301605,301.933411 130.124054,301.938324 
	C92.260796,302.023529 54.397236,302.030609 16.533937,301.956055 
	C12.410790,301.947937 8.288841,301.332062 4.166334,300.998108 
	C3.372271,297.883514 2.578210,294.768890 1.392074,291.827148 
	C1.000000,290.285645 1.000000,288.571289 1.000000,286.428467 
z"/>
<path fill="#09AACE" opacity="1.000000" stroke="none" 
	d="
M148.585114,24.939957 
	C150.883499,25.589943 152.815308,26.904774 154.749176,26.907803 
	C221.653488,27.012629 288.558014,27.012491 355.462372,26.929142 
	C358.404572,26.925478 361.345612,25.999186 364.627045,25.333548 
	C365.141846,25.124437 365.316772,25.084436 365.930359,25.245781 
	C366.613312,25.633715 366.868805,25.803379 367.135529,25.956112 
	C378.345093,32.393295 389.554626,38.830482 400.549927,45.796753 
	C398.704590,46.550014 397.073517,46.970058 395.442352,46.970364 
	C300.589996,46.988136 205.737640,46.971157 110.885277,46.957542 
	C115.664719,43.624763 120.241066,39.939365 125.271362,37.042133 
	C132.752335,32.733418 140.554199,28.981840 148.585114,24.939957 
z"/>
<path fill="#12A2CA" opacity="1.000000" stroke="none" 
	d="
M59.886566,92.959297 
	C63.350079,89.048332 66.813591,85.137360 71.057030,81.100258 
	C192.707443,80.982239 313.577942,80.996262 434.448425,80.956894 
	C436.910461,80.956093 439.372314,80.333977 441.834259,80.001724 
	C445.480804,84.092529 449.127350,88.183319 452.554474,92.800995 
	C450.369354,93.551712 448.403717,93.971001 446.437958,93.971481 
	C320.037170,94.002350 193.636383,94.005066 67.235603,93.955788 
	C64.785797,93.954834 62.336239,93.305908 59.886566,92.959297 
z"/>
<path fill="#0BA8CD" opacity="1.000000" stroke="none" 
	d="
M110.531525,46.983704 
	C205.737640,46.971157 300.589996,46.988136 395.442352,46.970364 
	C397.073517,46.970058 398.704590,46.550014 400.693481,46.109787 
	C407.625366,50.689602 414.199493,55.485462 420.553955,60.804832 
	C417.869446,61.552017 415.404694,61.969521 412.939697,61.971012 
	C352.832214,62.007336 292.724701,61.999413 232.617188,61.999386 
	C188.660446,61.999367 144.703598,62.035225 100.747231,61.908813 
	C98.145157,61.901329 95.546837,60.589275 92.946770,59.884293 
	C98.690437,55.592815 104.434105,51.301338 110.531525,46.983704 
z"/>
<path fill="#179EC8" opacity="1.000000" stroke="none" 
	d="
M44.951828,112.891281 
	C47.062653,109.688278 49.173473,106.485275 52.061016,103.128326 
	C188.930191,102.969025 325.022644,102.963646 461.115082,102.958267 
	C463.735687,106.371033 466.356323,109.783798 468.656494,113.761978 
	C466.040436,114.551582 463.744995,114.968750 461.449127,114.971169 
	C423.029999,115.011673 384.610779,114.984756 346.191681,115.034363 
	C343.525452,115.037804 340.295685,114.091995 338.643127,117.782440 
	C336.249573,116.812325 334.241699,115.186295 332.170807,115.101601 
	C325.138916,114.814003 318.084747,115.071045 310.846008,114.779449 
	C308.970947,113.960373 307.290039,113.068756 305.606873,113.064537 
	C272.989105,112.982635 240.370911,112.968521 207.753403,113.095329 
	C205.819473,113.102852 203.890625,114.413544 201.530884,115.068031 
	C193.747040,115.053055 186.391739,115.087860 178.681412,114.903587 
	C176.032349,114.456390 173.738525,114.031738 171.444260,114.029388 
	C131.701065,113.988739 91.957771,114.019394 52.214634,113.952499 
	C49.793110,113.948418 47.372734,113.260826 44.951828,112.891281 
z"/>
<path fill="#0EA5CC" opacity="1.000000" stroke="none" 
	d="
M92.640518,60.027672 
	C95.546837,60.589275 98.145157,61.901329 100.747231,61.908813 
	C144.703598,62.035225 188.660446,61.999367 232.617188,61.999386 
	C292.724701,61.999413 352.832214,62.007336 412.939697,61.971012 
	C415.404694,61.969521 417.869446,61.552017 420.692383,61.113083 
	C424.978333,64.380959 428.906250,67.864098 432.559814,71.747513 
	C429.650421,72.431671 427.015411,72.962845 424.380249,72.963821 
	C312.509369,73.005264 200.638458,73.007439 88.767593,72.955994 
	C85.806335,72.954628 82.845367,72.307152 79.884270,71.960983 
	C84.034271,68.031006 88.184273,64.101028 92.640518,60.027672 
z"/>
<path fill="#14A0C9" opacity="1.000000" stroke="none" 
	d="
M461.053040,102.611885 
	C325.022644,102.963646 188.930191,102.969025 52.361847,102.966385 
	C54.346382,99.718910 56.806801,96.479446 59.576893,93.099640 
	C62.336239,93.305908 64.785797,93.954834 67.235603,93.955788 
	C193.636383,94.005066 320.037170,94.002350 446.437958,93.971481 
	C448.403717,93.971001 450.369354,93.551712 452.693176,93.112503 
	C455.697845,96.019928 458.344391,99.142715 461.053040,102.611885 
z"/>
<path fill="#2D8ABF" opacity="1.000000" stroke="none" 
	d="
M510.881866,221.589294 
	C472.162109,221.989838 433.490417,221.980392 394.397217,221.538116 
	C394.070404,212.712723 391.092377,206.050735 383.024841,202.568771 
	C375.320374,199.243546 368.768402,201.048889 363.082947,207.218506 
	C361.998657,208.395111 359.475830,209.059402 357.844086,208.752243 
	C354.220764,208.070129 350.741516,206.622360 346.614868,205.297806 
	C347.482239,202.476044 348.323944,199.737793 349.623901,196.999863 
	C401.999725,196.999588 453.917236,196.998993 505.834778,196.998398 
	C507.533173,205.058701 509.231537,213.119003 510.881866,221.589294 
z"/>
<path fill="#2790C1" opacity="1.000000" stroke="none" 
	d="
M505.900604,196.602051 
	C453.917236,196.998993 401.999725,196.999588 349.559814,196.596710 
	C350.414246,189.460876 351.791046,182.728500 353.625977,175.996689 
	C400.019348,175.997894 445.954651,176.030090 491.889557,175.909271 
	C494.275635,175.903000 496.658325,174.591629 499.042572,173.887863 
	C501.350525,181.327133 503.658478,188.766418 505.900604,196.602051 
z"/>
<path fill="#10A3CB" opacity="1.000000" stroke="none" 
	d="
M79.581268,72.093582 
	C82.845367,72.307152 85.806335,72.954628 88.767593,72.955994 
	C200.638458,73.007439 312.509369,73.005264 424.380249,72.963821 
	C427.015411,72.962845 429.650421,72.431671 432.700745,72.054459 
	C435.979126,74.413132 438.842255,76.865158 441.769836,79.659454 
	C439.372314,80.333977 436.910461,80.956093 434.448425,80.956894 
	C313.577942,80.996262 192.707443,80.982239 71.361008,80.966042 
	C73.682800,78.047363 76.480537,75.136772 79.581268,72.093582 
z"/>
<path fill="#2294C3" opacity="1.000000" stroke="none" 
	d="
M499.022156,173.504974 
	C496.658325,174.591629 494.275635,175.903000 491.889557,175.909271 
	C445.954651,176.030090 400.019348,175.997894 353.559235,175.569000 
	C353.412170,169.759949 353.789978,164.379120 354.625977,158.998566 
	C398.651520,158.999100 442.218994,159.017151 485.786316,158.952271 
	C488.207275,158.948654 490.627197,158.258408 493.047607,157.887756 
	C495.032318,162.965851 497.017059,168.043976 499.022156,173.504974 
z"/>
<path fill="#1C99C6" opacity="1.000000" stroke="none" 
	d="
M478.114380,127.958405 
	C480.742920,132.714828 483.371460,137.471237 485.661194,142.746521 
	C482.857727,143.510208 480.393341,143.965500 477.928436,143.968369 
	C439.357056,144.013382 400.785553,143.978668 362.214233,144.044754 
	C359.435150,144.049515 356.657196,144.691452 353.550415,144.817673 
	C351.774689,139.411270 350.327209,134.224350 349.295227,128.944611 
	C352.682007,128.567886 355.652893,128.041794 358.624664,128.036652 
	C398.454498,127.968109 438.284454,127.972290 478.114380,127.958405 
z"/>
<path fill="#2096C4" opacity="1.000000" stroke="none" 
	d="
M353.878723,145.037140 
	C356.657196,144.691452 359.435150,144.049515 362.214233,144.044754 
	C400.785553,143.978668 439.357056,144.013382 477.928436,143.968369 
	C480.393341,143.965500 482.857727,143.510208 485.716339,143.108917 
	C488.401062,147.687485 490.691772,152.422501 493.015045,157.522644 
	C490.627197,158.258408 488.207275,158.948654 485.786316,158.952271 
	C442.218994,159.017151 398.651520,158.999100 354.557739,158.538666 
	C353.980499,153.731384 353.929596,149.384262 353.878723,145.037140 
z"/>
<path fill="#199BC7" opacity="1.000000" stroke="none" 
	d="
M477.963562,127.638252 
	C438.284454,127.972290 398.454498,127.968109 358.624664,128.036652 
	C355.652893,128.041794 352.682007,128.567886 348.995728,128.779816 
	C345.187134,125.082863 342.093536,121.457870 338.999939,117.832886 
	C340.295685,114.091995 343.525452,115.037804 346.191681,115.034363 
	C384.610779,114.984756 423.029999,115.011673 461.449127,114.971169 
	C463.744995,114.968750 466.040436,114.551582 468.694153,114.111816 
	C471.972412,118.370186 474.892578,122.844147 477.963562,127.638252 
z"/>
<path fill="#04AED0" opacity="1.000000" stroke="none" 
	d="
M367.041016,25.706673 
	C366.868805,25.803379 366.613312,25.633715 366.194641,25.296967 
	C366.328949,25.250284 366.637756,25.353758 367.041016,25.706673 
z"/>
<path fill="#298EC0" opacity="1.000000" stroke="none" 
	d="
M5.881009,204.962814 
	C7.338211,198.435593 8.795412,191.908356 11.049721,185.178513 
	C57.937935,184.971786 104.029037,184.967682 150.428558,185.105301 
	C154.175903,187.165512 157.629974,189.057663 161.044571,191.018539 
	C162.070465,191.607681 163.598572,192.218948 163.845108,193.110779 
	C164.828033,196.666321 165.396240,200.336502 165.691940,204.009918 
	C162.627625,204.369812 159.989548,204.955856 157.350998,204.958069 
	C106.861038,205.000671 56.371014,204.974655 5.881009,204.962814 
z"/>
<path fill="#2492C2" opacity="1.000000" stroke="none" 
	d="
M150.120148,184.963577 
	C104.029037,184.967682 57.937935,184.971786 11.371737,184.967987 
	C13.204869,177.864899 15.513096,170.769714 18.452047,163.336700 
	C62.426601,163.012787 105.770432,163.026672 148.953552,163.375458 
	C144.145676,171.112625 145.024658,178.169769 150.120148,184.963577 
z"/>
<path fill="#199BC7" opacity="1.000000" stroke="none" 
	d="
M44.643883,113.058868 
	C47.372734,113.260826 49.793110,113.948418 52.214634,113.952499 
	C91.957771,114.019394 131.701065,113.988739 171.444260,114.029388 
	C173.738525,114.031738 176.032349,114.456390 178.513458,115.207245 
	C170.411301,118.728424 166.428864,125.685303 162.373215,132.996521 
	C123.131775,132.997894 84.348366,133.028687 45.565144,132.955490 
	C41.432392,132.947693 37.300793,132.331863 33.168659,131.998108 
	C36.891087,125.740891 40.613518,119.483681 44.643883,113.058868 
z"/>
<path fill="#2096C4" opacity="1.000000" stroke="none" 
	d="
M149.114258,163.040588 
	C105.770432,163.026672 62.426601,163.012787 18.624775,162.998505 
	C20.725773,157.214401 23.284773,151.430664 26.463413,145.322937 
	C71.333038,144.998596 115.583023,144.998260 159.902176,145.416870 
	C159.905426,152.219940 158.589294,157.809235 151.585815,160.245468 
	C150.561768,160.601715 149.928406,162.080963 149.114258,163.040588 
z"/>
<path fill="#2D8ABF" opacity="1.000000" stroke="none" 
	d="
M5.550983,205.189850 
	C56.371014,204.974655 106.861038,205.000671 157.350998,204.958069 
	C159.989548,204.955856 162.627625,204.369812 165.999466,204.210388 
	C166.182159,204.909561 165.721786,205.750946 165.065979,205.950699 
	C160.268463,207.412003 155.250534,208.305435 150.643936,210.206345 
	C140.004990,214.596436 129.559509,219.455383 119.035545,224.124161 
	C117.110977,223.417984 115.188652,222.103149 113.261513,222.096085 
	C79.391670,221.971802 45.521198,221.986420 11.651003,222.048676 
	C9.019377,222.053513 6.388809,222.634811 3.325054,222.955536 
	C3.668560,217.114227 4.444759,211.265564 5.550983,205.189850 
z"/>
<path fill="#1C99C6" opacity="1.000000" stroke="none" 
	d="
M159.833008,144.997910 
	C115.583023,144.998260 71.333038,144.998596 26.625065,144.998566 
	C28.394749,140.876404 30.622421,136.754639 33.009377,132.315491 
	C37.300793,132.331863 41.432392,132.947693 45.565144,132.955490 
	C84.348366,133.028687 123.131775,132.997894 162.434372,133.382568 
	C161.913406,137.511307 160.873199,141.254608 159.833008,144.997910 
z"/>
<path fill="#645BA6" opacity="1.000000" stroke="none" 
	d="
M355.477173,494.009583 
	C352.661957,493.697632 350.216370,493.045898 347.770203,493.043610 
	C287.222137,492.987213 226.674011,492.989410 166.125961,493.036011 
	C163.660080,493.037903 161.194611,493.573395 158.316833,493.960632 
	C145.354446,487.614838 132.804199,481.168732 120.391006,474.152924 
	C123.241508,473.055542 125.953697,472.076202 128.668625,472.068604 
	C165.128769,471.966614 201.589310,472.000031 238.049744,472.000000 
	C287.329590,472.000000 336.609528,471.970612 385.889099,472.089996 
	C388.275146,472.095764 390.658020,473.409790 393.042389,474.114594 
	C385.262024,478.734070 377.585175,483.541840 369.660461,487.898773 
	C365.269867,490.312653 360.464752,491.972656 355.477173,494.009583 
z"/>
<path fill="#5667AD" opacity="1.000000" stroke="none" 
	d="
M55.926956,417.070709 
	C53.626091,413.981262 51.325226,410.891815 49.275970,407.192444 
	C52.575474,406.054993 55.623104,405.067902 58.671307,405.066132 
	C190.417755,404.989380 322.164215,404.991302 453.910675,405.041840 
	C457.879211,405.043335 461.847443,405.664001 465.815826,405.996002 
	C463.118164,409.580688 460.420471,413.165344 456.942749,416.888153 
	C374.050049,417.017517 291.937469,416.998444 209.824860,417.003754 
	C158.525558,417.007080 107.226257,417.047119 55.926956,417.070709 
z"/>
<path fill="#605EA8" opacity="1.000000" stroke="none" 
	d="
M105.295502,464.610413 
	C99.260338,459.627228 93.225174,454.644012 87.435867,449.199097 
	C89.649437,448.492218 91.617111,448.032898 93.584885,448.032501 
	C205.096634,448.010010 316.608398,448.025726 428.120148,448.037659 
	C421.663849,453.357147 415.207550,458.676636 408.043060,463.834747 
	C405.701416,463.449432 404.067963,463.030060 402.434418,463.029541 
	C305.783447,462.998749 209.132477,462.990875 112.481590,463.070129 
	C110.085808,463.072083 107.690849,464.074585 105.295502,464.610413 
z"/>
<path fill="#5B63AA" opacity="1.000000" stroke="none" 
	d="
M81.959351,445.121521 
	C77.382881,440.648499 72.806404,436.175446 68.399094,431.171295 
	C71.969994,430.093445 75.371384,429.071228 78.773499,429.068848 
	C196.752502,428.986328 314.731567,428.988647 432.710602,429.043854 
	C437.180389,429.045929 441.649811,429.692444 446.119385,430.038696 
	C441.988953,434.278412 437.858521,438.518158 433.005981,442.806000 
	C429.646698,442.569458 427.009552,442.036896 424.372223,442.035889 
	C312.900726,441.994324 201.429230,441.999908 89.957726,442.002502 
	C88.625122,442.002533 87.130745,441.663391 85.999863,442.150757 
	C84.504082,442.795410 83.292870,444.100342 81.959351,445.121521 
z"/>
<path fill="#5964AB" opacity="1.000000" stroke="none" 
	d="
M446.420227,429.895508 
	C441.649811,429.692444 437.180389,429.045929 432.710602,429.043854 
	C314.731567,428.988647 196.752502,428.986328 78.773499,429.068848 
	C75.371384,429.071228 71.969994,430.093445 68.257393,430.871277 
	C64.034286,426.628143 60.122059,422.153900 56.068390,417.375183 
	C107.226257,417.047119 158.525558,417.007080 209.824860,417.003754 
	C291.937469,416.998444 374.050049,417.017517 456.638672,417.034607 
	C453.650177,421.279419 450.185638,425.515900 446.420227,429.895508 
z"/>
<path fill="#5468AD" opacity="1.000000" stroke="none" 
	d="
M465.980469,405.689636 
	C461.847443,405.664001 457.879211,405.043335 453.910675,405.041840 
	C322.164215,404.991302 190.417755,404.989380 58.671307,405.066132 
	C55.623104,405.067902 52.575474,406.054993 49.237347,406.842651 
	C45.719158,402.629120 42.491207,398.155426 39.673298,393.340149 
	C80.645348,392.999023 121.207390,393.018341 161.769287,392.952820 
	C164.190598,392.948914 166.610825,392.265930 169.334930,392.051331 
	C175.335312,398.976898 182.651978,401.509827 191.392624,401.061310 
	C199.585114,400.640930 206.956314,397.876495 214.242325,394.454712 
	C215.740173,393.751221 218.148270,393.423492 219.465607,394.146118 
	C229.704803,399.762970 235.180054,399.371490 244.310883,392.108093 
	C246.287643,392.549225 247.906845,392.965118 249.526947,392.968567 
	C265.062347,393.001556 280.597900,392.964844 296.494293,392.982605 
	C311.088104,400.662750 325.517883,405.358704 341.303253,396.049927 
	C344.516052,396.428986 347.313843,396.958282 350.112305,396.961914 
	C390.686218,397.014465 431.260254,396.996552 471.834290,396.995483 
	C469.937866,399.791443 468.041473,402.587372 465.980469,405.689636 
z"/>
<path fill="#625CA7" opacity="1.000000" stroke="none" 
	d="
M105.598526,464.777100 
	C107.690849,464.074585 110.085808,463.072083 112.481590,463.070129 
	C209.132477,462.990875 305.783447,462.998749 402.434418,463.029541 
	C404.067963,463.030060 405.701416,463.449432 407.692719,463.889404 
	C403.286194,467.403168 398.521881,470.700836 393.399963,474.056549 
	C390.658020,473.409790 388.275146,472.095764 385.889099,472.089996 
	C336.609528,471.970612 287.329590,472.000000 238.049744,472.000000 
	C201.589310,472.000031 165.128769,471.966614 128.668625,472.068604 
	C125.953697,472.076202 123.241508,473.055542 120.238029,473.843567 
	C115.265854,471.050568 110.583702,467.997192 105.598526,464.777100 
z"/>
<path fill="#516CAF" opacity="1.000000" stroke="none" 
	d="
M471.994385,396.684631 
	C431.260254,396.996552 390.686218,397.014465 350.112305,396.961914 
	C347.313843,396.958282 344.516052,396.428986 341.451569,395.745483 
	C346.921387,390.473328 349.781647,383.878448 352.625122,376.999512 
	C391.977356,376.999847 430.871490,376.965973 469.765381,377.046478 
	C474.223541,377.055695 478.680359,377.703949 483.137817,378.055908 
	C479.476715,384.161835 475.815613,390.267792 471.994385,396.684631 
z"/>
<path fill="#4476B4" opacity="1.000000" stroke="none" 
	d="
M505.113068,320.044495 
	C504.063293,324.429565 503.013550,328.814606 501.427887,333.595062 
	C451.316864,333.993195 401.741791,333.995911 352.100464,333.584961 
	C351.078369,328.447083 350.122498,323.722839 349.624817,318.998932 
	C398.981110,318.999512 447.879181,318.982758 496.777161,319.044647 
	C499.556213,319.048187 502.334442,319.696350 505.113068,320.044495 
z"/>
<path fill="#4873B3" opacity="1.000000" stroke="none" 
	d="
M352.166687,333.998627 
	C401.741791,333.995911 451.316864,333.993195 501.348083,333.986267 
	C499.927612,339.099304 498.051086,344.216553 495.596558,349.622131 
	C491.880768,349.607056 488.743347,349.043488 485.605194,349.039307 
	C441.792511,348.981110 397.979706,348.999359 354.101288,348.566467 
	C353.412659,343.422211 352.789673,338.710419 352.166687,333.998627 
z"/>
<path fill="#4B70B1" opacity="1.000000" stroke="none" 
	d="
M354.166931,348.998962 
	C397.979706,348.999359 441.792511,348.981110 485.605194,349.039307 
	C488.743347,349.043488 491.880768,349.607056 495.426331,349.954407 
	C493.884125,354.753418 491.934113,359.508545 489.477142,364.622437 
	C481.170013,364.654144 473.370544,364.065460 465.569519,364.044495 
	C428.435394,363.944702 391.300842,363.999298 354.100830,363.536896 
	C354.079102,358.382874 354.123016,353.690918 354.166931,348.998962 
z"/>
<path fill="#5E60A9" opacity="1.000000" stroke="none" 
	d="
M82.097977,445.418030 
	C83.292870,444.100342 84.504082,442.795410 85.999863,442.150757 
	C87.130745,441.663391 88.625122,442.002533 89.957726,442.002502 
	C201.429230,441.999908 312.900726,441.994324 424.372223,442.035889 
	C427.009552,442.036896 429.646698,442.569458 432.699005,442.948608 
	C431.644409,444.617340 430.174744,446.191620 428.412598,447.901764 
	C316.608398,448.025726 205.096634,448.010010 93.584885,448.032501 
	C91.617111,448.032898 89.649437,448.492218 87.288406,448.895020 
	C85.342262,447.939941 83.789436,446.827240 82.097977,445.418030 
z"/>
<path fill="#4179B6" opacity="1.000000" stroke="none" 
	d="
M505.432220,319.824951 
	C502.334442,319.696350 499.556213,319.048187 496.777161,319.044647 
	C447.879181,318.982758 398.981110,318.999512 349.556763,318.605042 
	C346.667786,309.360413 346.667664,309.359924 356.179077,306.902588 
	C357.411957,306.584076 358.647217,306.274658 360.074249,305.842804 
	C360.519409,305.557861 360.756256,305.371552 361.305664,305.096832 
	C362.077393,304.978851 362.521118,304.929749 362.964844,304.880615 
	C365.383942,305.253326 367.802551,305.947784 370.222168,305.951172 
	C416.113098,306.015411 462.004181,305.998077 508.351501,305.997406 
	C507.789001,310.533203 506.770203,315.069305 505.432220,319.824951 
z"/>
<path fill="#4E6EB0" opacity="1.000000" stroke="none" 
	d="
M354.166443,363.998962 
	C391.300842,363.999298 428.435394,363.944702 465.569519,364.044495 
	C473.370544,364.065460 481.170013,364.654144 489.389709,364.983459 
	C487.786896,369.223419 485.764587,373.461121 483.440063,377.877380 
	C478.680359,377.703949 474.223541,377.055695 469.765381,377.046478 
	C430.871490,376.965973 391.977356,376.999847 352.579468,376.594513 
	C352.772583,372.125824 353.469513,368.062408 354.166443,363.998962 
z"/>
<path fill="#4B70B1" opacity="1.000000" stroke="none" 
	d="
M28.169382,373.993103 
	C25.120518,367.272888 22.071657,360.552673 19.347786,353.246521 
	C21.970182,352.440369 24.267420,352.030151 26.565020,352.028137 
	C70.654297,351.989319 114.743622,351.998444 158.899658,352.459167 
	C159.588654,359.946045 160.210922,366.971375 160.417877,373.980560 
	C155.380386,373.642609 150.758820,373.052032 146.135956,373.041779 
	C110.936043,372.963715 75.735825,372.966400 40.535908,373.042847 
	C36.413063,373.051788 32.291527,373.661743 28.169382,373.993103 
z"/>
<path fill="#516CAF" opacity="1.000000" stroke="none" 
	d="
M28.218388,374.338684 
	C32.291527,373.661743 36.413063,373.051788 40.535908,373.042847 
	C75.735825,372.966400 110.936043,372.963715 146.135956,373.041779 
	C150.758820,373.052032 155.380386,373.642609 160.487061,374.370178 
	C163.658203,380.483643 166.344879,386.191284 169.031555,391.898956 
	C166.610825,392.265930 164.190598,392.948914 161.769287,392.952820 
	C121.207390,393.018341 80.645348,392.999023 39.625458,392.998138 
	C35.534176,386.893219 31.900784,380.788757 28.218388,374.338684 
z"/>
<path fill="#4873B3" opacity="1.000000" stroke="none" 
	d="
M158.832932,351.997681 
	C114.743622,351.998444 70.654297,351.989319 26.565020,352.028137 
	C24.267420,352.030151 21.970182,352.440369 19.314125,352.873840 
	C16.657120,346.978210 14.358766,340.869385 12.571428,334.379578 
	C62.332745,333.998108 111.583046,333.997650 160.900146,334.427124 
	C160.255615,340.570618 159.544281,346.284149 158.832932,351.997681 
z"/>
<path fill="#4179B6" opacity="1.000000" stroke="none" 
	d="
M4.101719,301.408752 
	C8.288841,301.332062 12.410790,301.947937 16.533937,301.956055 
	C54.397236,302.030609 92.260796,302.023529 130.124054,301.938324 
	C132.301605,301.933411 134.477158,301.041534 137.222168,300.282562 
	C147.362747,303.275391 156.934799,306.548065 166.618942,309.859070 
	C165.799240,312.540253 164.958740,315.289398 163.642242,318.031067 
	C115.292847,318.015747 67.419434,318.032349 19.546175,317.956573 
	C15.419197,317.950043 11.293187,317.331787 7.166728,316.997681 
	C6.123519,311.938263 5.080310,306.878845 4.101719,301.408752 
z"/>
<path fill="#4476B4" opacity="1.000000" stroke="none" 
	d="
M7.240349,317.374207 
	C11.293187,317.331787 15.419197,317.950043 19.546175,317.956573 
	C67.419434,318.032349 115.292847,318.015747 163.595642,318.450012 
	C162.961166,323.916626 161.897247,328.956909 160.833344,333.997162 
	C111.583046,333.997650 62.332745,333.998108 12.624468,333.998077 
	C10.548985,328.581940 8.931478,323.166321 7.240349,317.374207 
z"/>
<path fill="#000000" opacity="1.000000" stroke="none" 
	d="
M160.900146,334.427124 
	C161.897247,328.956909 162.961166,323.916626 164.071655,318.457458 
	C164.958740,315.289398 165.799240,312.540253 166.618942,309.859070 
	C156.934799,306.548065 147.362747,303.275391 137.415237,299.942017 
	C128.604340,295.004608 120.168884,290.127930 111.426048,285.108582 
	C104.170494,279.653656 98.738312,273.207245 95.930695,264.379761 
	C93.616547,255.919998 95.320145,248.565247 100.059677,241.401855 
	C106.312172,235.599533 112.506287,230.159134 118.867973,224.421448 
	C129.559509,219.455383 140.004990,214.596436 150.643936,210.206345 
	C155.250534,208.305435 160.268463,207.412003 165.065979,205.950699 
	C165.721786,205.750946 166.182159,204.909561 166.425491,204.164734 
	C165.396240,200.336502 164.828033,196.666321 163.845108,193.110779 
	C163.598572,192.218948 162.070465,191.607681 161.044571,191.018539 
	C157.629974,189.057663 154.175903,187.165512 150.428558,185.105301 
	C145.024658,178.169769 144.145676,171.112625 148.953552,163.375473 
	C149.928406,162.080963 150.561768,160.601715 151.585815,160.245468 
	C158.589294,157.809235 159.905426,152.219940 159.902176,145.416870 
	C160.873199,141.254608 161.913406,137.511307 162.892456,133.381958 
	C166.428864,125.685303 170.411301,118.728424 178.868500,115.426315 
	C186.391739,115.087860 193.747040,115.053055 201.720276,115.383255 
	C208.533112,118.513092 214.728027,121.277924 221.100098,124.342667 
	C233.361237,133.991882 245.445206,143.341187 256.670929,152.026459 
	C268.188416,143.009109 279.618835,134.059937 291.369263,124.959961 
	C298.139221,121.579445 304.589172,118.349754 311.039093,115.120056 
	C318.084747,115.071045 325.138916,114.814003 332.170807,115.101601 
	C334.241699,115.186295 336.249573,116.812325 338.643127,117.782425 
	C342.093536,121.457870 345.187134,125.082863 348.580261,128.872635 
	C350.327209,134.224350 351.774689,139.411270 353.550415,144.817673 
	C353.929596,149.384262 353.980499,153.731384 354.099609,158.538406 
	C353.789978,164.379120 353.412170,169.759949 353.101105,175.568451 
	C351.791046,182.728500 350.414246,189.460876 349.101562,196.596375 
	C348.323944,199.737793 347.482239,202.476044 346.614868,205.297806 
	C350.741516,206.622360 354.220764,208.070129 357.844086,208.752243 
	C359.475830,209.059402 361.998657,208.395111 363.082947,207.218506 
	C368.768402,201.048889 375.320374,199.243546 383.024841,202.568771 
	C391.092377,206.050735 394.070404,212.712723 393.920105,221.528656 
	C394.714722,223.224503 395.289642,224.896393 396.460602,225.703476 
	C403.207672,230.353851 409.695404,235.260178 413.905518,242.479187 
	C415.525696,245.257248 416.658997,248.319260 418.090393,251.624298 
	C420.277405,262.521881 416.409119,271.008545 409.031738,278.656433 
	C396.103668,291.700958 380.117035,298.666992 363.166473,304.571106 
	C362.521118,304.929749 362.077393,304.978851 361.048492,305.085510 
	C360.269348,305.415710 360.075348,305.688385 359.881378,305.961060 
	C358.647217,306.274658 357.411957,306.584076 356.179077,306.902588 
	C346.667664,309.359924 346.667786,309.360413 349.098572,318.604736 
	C350.122498,323.722839 351.078369,328.447083 352.100464,333.584961 
	C352.789673,338.710419 353.412659,343.422211 354.101288,348.566467 
	C354.123016,353.690918 354.079102,358.382874 354.100830,363.536896 
	C353.469513,368.062408 352.772583,372.125824 352.121307,376.594299 
	C349.781647,383.878448 346.921387,390.473328 341.036865,395.651276 
	C325.517883,405.358704 311.088104,400.662750 296.319519,392.674805 
	C285.311890,384.508942 274.471008,377.124664 264.477325,368.731598 
	C255.445328,361.146210 254.031754,360.806183 247.129868,370.480377 
	C246.625977,371.186707 246.520798,372.556946 246.827286,373.401947 
	C249.265961,380.125336 248.389481,386.268494 243.953720,391.891510 
	C235.180054,399.371490 229.704803,399.762970 219.465607,394.146118 
	C218.148270,393.423492 215.740173,393.751221 214.242325,394.454712 
	C206.956314,397.876495 199.585114,400.640930 191.392624,401.061310 
	C182.651978,401.509827 175.335312,398.976898 169.334930,392.051331 
	C166.344879,386.191284 163.658203,380.483643 160.902374,374.386353 
	C160.210922,366.971375 159.588654,359.946045 158.899658,352.459167 
	C159.544281,346.284149 160.255615,340.570618 160.900146,334.427124 
M195.249222,260.690674 
	C199.793320,268.806671 204.337402,276.922638 208.997131,285.757721 
	C214.038040,293.963867 219.027390,302.202789 224.193634,310.329254 
	C224.756775,311.215088 226.301346,311.801788 227.456543,311.928925 
	C231.877762,312.415558 236.329712,312.984253 240.763229,312.932007 
	C256.027893,312.752106 271.290039,312.339722 286.551300,311.944763 
	C287.379852,311.923340 288.567352,311.484894 288.954712,310.852722 
	C294.406952,301.954224 299.749268,292.988342 305.713837,283.689789 
	C309.688202,276.399780 313.969513,269.252167 317.455963,261.735840 
	C318.548218,259.381134 317.499786,256.033508 317.097687,252.557373 
	C312.772247,244.692566 308.446838,236.827744 303.810852,228.322968 
	C300.676544,223.161194 297.172852,218.182297 294.503448,212.790375 
	C291.319977,206.360107 287.968414,202.259018 279.443390,202.693268 
	C261.954559,203.584137 244.389816,202.948944 226.858185,203.125458 
	C225.805328,203.136047 224.471390,204.568954 223.771805,205.662262 
	C218.403778,214.051437 213.160492,222.520447 207.272568,231.314316 
	C203.298965,238.952316 199.202881,246.531021 195.453400,254.277496 
	C194.688202,255.858398 195.224991,258.069519 195.249222,260.690674 
M410.873260,249.468964 
	C410.593964,249.269730 410.314697,249.070496 409.991272,248.166748 
	C406.117035,241.114990 400.084747,236.120346 393.810577,231.404495 
	C391.674072,229.798645 389.770508,229.713837 387.352753,231.969955 
	C377.839264,240.847504 361.000397,235.616959 359.378540,222.680725 
	C358.485840,215.560333 355.108887,213.898926 349.519989,213.003174 
	C347.926666,212.747803 346.359375,212.329987 345.092224,212.054504 
	C339.975922,225.138565 334.935211,238.029419 329.260681,251.300644 
	C328.697113,253.903397 326.980560,256.930267 327.756683,259.040222 
	C332.874969,272.954376 338.595490,286.645721 343.945801,300.476990 
	C344.854034,302.824951 345.663971,302.927063 347.900482,302.151154 
	C355.291992,299.586670 362.889648,297.607971 370.250305,294.964691 
	C383.691803,290.137726 395.939941,283.388519 405.883301,272.755188 
	C410.676208,267.629639 413.992188,256.202789 410.936584,250.497345 
	C410.903809,250.330338 410.871063,250.163345 410.873260,249.468964 
M276.182129,175.679855 
	C280.925537,182.085526 285.607452,188.538589 290.473694,194.849548 
	C291.271240,195.883881 292.815002,196.727463 294.124146,196.923630 
	C308.476105,199.074265 322.879730,200.899796 337.192261,203.277466 
	C339.979034,203.740417 340.644470,203.335495 341.096466,200.892288 
	C342.688812,192.285553 344.389984,183.698975 346.751160,174.610367 
	C347.163239,170.745056 347.914551,166.878510 347.900299,163.014771 
	C347.883087,158.340988 347.217896,153.669617 346.967316,148.144669 
	C346.263824,144.323044 346.145325,140.272247 344.753784,136.720154 
	C339.242615,122.652184 331.917725,118.321617 319.879333,120.336861 
	C300.201935,123.630859 285.117035,135.800278 270.280151,149.227890 
	C267.942902,151.560181 265.459625,153.770233 263.348907,156.292114 
	C262.625458,157.156479 262.177582,159.342972 262.722168,160.003983 
	C266.958191,165.145370 271.467499,170.061569 276.182129,175.679855 
M219.735153,366.741852 
	C225.573807,361.890320 231.819504,361.779541 238.568527,364.752594 
	C240.025253,365.394318 242.551361,365.425476 243.715790,364.563660 
	C246.866974,362.231262 249.550629,359.267242 252.440903,356.533722 
	C246.988281,350.279785 242.053101,344.619385 236.812286,338.340790 
	C233.117722,333.355896 229.538422,328.279144 225.674133,323.429504 
	C224.038010,321.376190 222.002411,318.559387 219.808060,318.206635 
	C204.492233,315.744751 189.087234,313.837799 172.596115,311.601959 
	C170.875961,320.281219 169.021103,329.640137 167.030838,339.862762 
	C166.742401,348.241821 166.453964,356.620850 166.033325,365.826477 
	C166.709732,369.521576 166.999054,373.340149 168.131424,376.889771 
	C172.406631,390.290833 180.280411,395.401581 190.792877,394.665070 
	C198.688614,394.111847 206.379135,390.629425 214.443588,388.371918 
	C211.536606,379.475250 213.064651,372.675476 219.735153,366.741852 
M274.185486,368.660431 
	C283.462891,377.603088 293.873993,384.933838 305.646912,390.181580 
	C312.320251,393.156219 319.147125,394.642883 326.779236,394.351196 
	C339.805511,393.853363 346.927032,378.182800 346.971283,366.152405 
	C346.686371,357.421173 346.401428,348.689911 346.021210,339.096039 
	C344.353668,330.628784 342.690125,322.160767 341.016235,313.694763 
	C340.510895,311.138977 339.245239,311.075775 336.733398,311.517059 
	C324.990143,313.580170 313.172424,315.219574 301.380737,317.006500 
	C298.011963,317.517029 293.252869,316.787109 291.524750,318.741882 
	C285.728058,325.298920 281.012512,332.811798 275.278076,340.240570 
	C271.221649,344.962738 267.059326,349.601379 263.207886,354.485199 
	C262.527069,355.348541 262.546814,357.828644 263.262299,358.547150 
	C266.610504,361.909485 270.315399,364.916626 274.185486,368.660431 
M243.142014,168.361862 
	C245.249802,166.235291 247.419067,164.165573 249.450363,161.968292 
	C252.222504,158.969635 251.579849,156.419876 248.513275,153.895416 
	C243.319763,149.620010 238.416107,144.991074 233.200821,140.743790 
	C221.334839,131.080246 208.692490,122.842957 193.228043,120.114456 
	C187.784332,119.153984 176.014023,122.539261 172.505722,128.544022 
	C167.561188,137.007050 166.128235,145.861954 165.932449,155.332352 
	C172.516663,157.697632 177.864868,161.161835 180.322754,168.786880 
	C182.341736,177.694092 179.849976,183.425858 172.227463,188.402710 
	C171.069275,189.158920 169.945114,191.348419 170.186829,192.610336 
	C170.931641,196.499100 172.345963,200.259644 173.220230,203.145828 
	C188.945938,201.031433 203.957291,199.038483 218.955750,196.952866 
	C220.293808,196.766800 222.032883,196.355545 222.765915,195.411987 
	C229.553619,186.674759 236.161087,177.797562 243.142014,168.361862 
M183.983734,263.279816 
	C187.428818,259.092163 185.860138,254.999359 183.976349,250.737427 
	C180.288116,242.393036 176.702148,233.998810 173.301743,225.533676 
	C171.511536,221.077072 170.202164,216.427338 168.511795,211.375015 
	C159.376831,214.392120 150.777298,216.882187 142.443192,220.066864 
	C129.847565,224.879974 117.780113,230.817902 108.539658,241.038269 
	C102.625061,247.580063 98.875267,254.928864 102.978333,264.781891 
	C106.463333,269.448425 109.167740,275.094147 113.573158,278.606110 
	C129.661575,291.431519 148.689850,298.058472 168.108612,302.787781 
	C173.432480,289.653015 178.632507,276.823730 183.983734,263.279816 
M182.521912,231.022156 
	C184.928116,237.014893 187.334305,243.007629 189.989105,249.619492 
	C198.972473,234.001541 207.445404,219.271042 216.625793,203.310562 
	C202.074951,205.624832 188.628250,207.763489 174.796982,209.963303 
	C177.366165,217.153595 179.725906,223.757782 182.521912,231.022156 
M239.914795,331.668671 
	C245.391907,338.320557 250.869003,344.972473 256.931549,352.335388 
	C266.162231,340.825775 274.545685,330.372589 283.266754,319.498413 
	C265.072876,319.498413 248.182922,319.498413 230.269241,319.498413 
	C233.673187,323.750366 236.597839,327.403625 239.914795,331.668671 
M178.484100,294.028442 
	C177.355682,297.520233 176.227264,301.012054 174.967697,304.909668 
	C188.835342,307.109955 202.216263,309.233032 216.588287,311.513367 
	C207.369690,295.532959 198.930695,280.903992 189.854248,265.170044 
	C185.980804,275.135468 182.440918,284.242706 178.484100,294.028442 
M336.000671,297.502472 
	C331.975494,286.925385 327.950317,276.348297 323.671509,265.104706 
	C314.453217,281.007721 305.892090,295.777008 296.806183,311.451599 
	C310.957062,309.236816 324.430969,307.127960 338.424164,304.937836 
	C337.489380,302.270172 336.794739,300.287781 336.000671,297.502472 
M310.523285,226.049423 
	C314.610291,233.735764 318.697266,241.422104 323.487976,250.431870 
	C328.859650,236.360535 333.711792,223.650131 338.933136,209.972549 
	C324.569519,207.738266 311.174713,205.654694 296.401062,203.356628 
	C301.500641,211.658142 305.754669,218.583176 310.523285,226.049423 
M266.319305,194.997452 
	C271.613251,195.414474 276.907227,195.831512 283.532928,196.353439 
	C281.437317,193.440628 280.303345,191.696838 279.003937,190.086517 
	C272.430420,181.940125 265.847992,173.800339 259.190002,165.723099 
	C257.387299,163.536163 255.839706,163.135010 253.845901,166.101196 
	C251.388351,169.757294 248.042343,172.802414 245.274231,176.266571 
	C240.337265,182.444962 235.545792,188.739624 230.684387,194.997360 
	C242.686890,194.997360 254.020615,194.997360 266.319305,194.997452 
M386.998535,218.488113 
	C386.856445,211.296051 383.543701,208.013855 376.411530,207.998734 
	C369.237579,207.983521 365.106842,211.768753 365.002594,218.453537 
	C364.909058,224.449036 369.764618,229.556137 375.965149,229.983994 
	C381.627197,230.374664 386.504242,225.667313 386.998535,218.488113 
M241.976135,380.431702 
	C241.214813,375.725403 239.750885,371.735962 234.627533,369.790192 
	C230.000458,368.032898 225.989792,369.037750 222.762802,372.016693 
	C219.105972,375.392426 218.809921,380.202423 220.422348,384.657043 
	C221.926117,388.811493 225.129974,391.135742 229.949738,391.049530 
	C236.765823,390.927612 239.306274,389.004486 241.976135,380.431702 
M152.493454,174.991638 
	C153.832993,181.584442 157.493820,184.167694 164.835144,184.029404 
	C169.220261,183.946793 171.800507,181.510071 173.546707,177.911728 
	C175.384476,174.124649 175.202286,170.354202 172.500168,167.029755 
	C169.681030,163.561295 166.203079,161.083435 161.425171,162.282547 
	C155.275986,163.825806 152.531754,168.208893 152.493454,174.991638 
z"/>
<path fill="#199BC7" opacity="1.000000" stroke="none" 
	d="
M310.846008,114.779449 
	C304.589172,118.349754 298.139221,121.579445 291.012024,124.743195 
	C288.712891,124.452286 287.091309,124.033936 285.469177,124.031639 
	C263.953827,124.001266 242.438370,124.029297 220.922943,124.042755 
	C214.728027,121.277924 208.533112,118.513092 202.148804,115.433037 
	C203.890625,114.413544 205.819473,113.102852 207.753403,113.095329 
	C240.370911,112.968521 272.989105,112.982635 305.606873,113.064537 
	C307.290039,113.068756 308.970947,113.960373 310.846008,114.779449 
z"/>
<path fill="#516CAF" opacity="1.000000" stroke="none" 
	d="
M244.310883,392.108093 
	C248.389481,386.268494 249.265961,380.125336 246.827286,373.401947 
	C246.520798,372.556946 246.625977,371.186707 247.129868,370.480377 
	C254.031754,360.806183 255.445328,361.146210 264.477325,368.731598 
	C274.471008,377.124664 285.311890,384.508942 295.958618,392.640320 
	C280.597900,392.964844 265.062347,393.001556 249.526947,392.968567 
	C247.906845,392.965118 246.287643,392.549225 244.310883,392.108093 
z"/>
<path fill="#3E7CB7" opacity="1.000000" stroke="none" 
	d="
M360.074249,305.842804 
	C360.075348,305.688385 360.269348,305.415710 360.720520,305.154358 
	C360.756256,305.371552 360.519409,305.557861 360.074249,305.842804 
z"/>
<path fill="#3485BB" opacity="1.000000" stroke="none" 
	d="
M102.885788,264.041504 
	C98.875267,254.928864 102.625061,247.580063 108.539658,241.038269 
	C117.780113,230.817902 129.847565,224.879974 142.443192,220.066864 
	C150.777298,216.882187 159.376831,214.392120 168.511795,211.375015 
	C170.202164,216.427338 171.511536,221.077072 173.301743,225.533676 
	C176.702148,233.998810 180.288116,242.393036 183.976349,250.737427 
	C185.860138,254.999359 187.428818,259.092163 183.450226,263.638062 
	C156.239746,264.011383 129.562759,264.026459 102.885788,264.041504 
z"/>
<path fill="#3880B9" opacity="1.000000" stroke="none" 
	d="
M410.833496,250.997360 
	C413.992188,256.202789 410.676208,267.629639 405.883301,272.755188 
	C395.939941,283.388519 383.691803,290.137726 370.250305,294.964691 
	C362.889648,297.607971 355.291992,299.586670 347.900482,302.151154 
	C345.663971,302.927063 344.854034,302.824951 343.945801,300.476990 
	C338.595490,286.645721 332.874969,272.954376 327.756683,259.040222 
	C326.980560,256.930267 328.697113,253.903397 330.051086,251.128448 
	C357.505493,250.969971 384.169495,250.983658 410.833496,250.997360 
z"/>
<path fill="#2096C4" opacity="1.000000" stroke="none" 
	d="
M180.160889,167.979889 
	C177.864868,161.161835 172.516663,157.697632 165.932449,155.332352 
	C166.128235,145.861954 167.561188,137.007050 172.505722,128.544022 
	C176.014023,122.539261 187.784332,119.153984 193.228043,120.114456 
	C208.692490,122.842957 221.334839,131.080246 233.200821,140.743790 
	C238.416107,144.991074 243.319763,149.620010 248.513275,153.895416 
	C251.579849,156.419876 252.222504,158.969635 249.450363,161.968292 
	C247.419067,164.165573 245.249802,166.235291 242.574127,168.626099 
	C238.869781,168.593765 235.734528,168.056671 232.596619,168.040527 
	C215.118408,167.950531 197.639526,167.986816 180.160889,167.979889 
z"/>
<path fill="#3E7CB7" opacity="1.000000" stroke="none" 
	d="
M305.118225,284.038818 
	C299.749268,292.988342 294.406952,301.954224 288.954712,310.852722 
	C288.567352,311.484894 287.379852,311.923340 286.551300,311.944763 
	C271.290039,312.339722 256.027893,312.752106 240.763229,312.932007 
	C236.329712,312.984253 231.877762,312.415558 227.456543,311.928925 
	C226.301346,311.801788 224.756775,311.215088 224.193634,310.329254 
	C219.027390,302.202789 214.038040,293.963867 209.365997,285.429626 
	C221.493164,285.356903 233.250916,285.694489 245.010422,285.774719 
	C246.682449,285.786133 248.363022,284.548126 250.458801,283.932251 
	C257.101349,284.959412 263.124664,284.216492 269.318420,282.098022 
	C271.949493,282.544403 274.220612,282.885895 276.501923,282.980011 
	C286.039032,283.373383 295.579193,283.692505 305.118225,284.038818 
z"/>
<path fill="#2D8ABF" opacity="1.000000" stroke="none" 
	d="
M207.878479,230.964661 
	C213.160492,222.520447 218.403778,214.051437 223.771805,205.662262 
	C224.471390,204.568954 225.805328,203.136047 226.858185,203.125458 
	C244.389816,202.948944 261.954559,203.584137 279.443390,202.693268 
	C287.968414,202.259018 291.319977,206.360107 294.503448,212.790375 
	C297.172852,218.182297 300.676544,223.161194 303.489685,228.650208 
	C292.194763,228.985931 281.218842,228.885010 270.249054,229.098358 
	C268.141296,229.139328 266.057587,230.414474 263.544189,231.069153 
	C259.034607,231.013992 254.923981,230.768921 250.860153,231.099289 
	C248.546265,231.287399 246.308777,232.415451 243.681732,232.901337 
	C241.050598,232.454773 238.779327,232.113022 236.497864,232.019257 
	C226.959747,231.627197 217.418549,231.309570 207.878479,230.964661 
z"/>
<path fill="#4B70B1" opacity="1.000000" stroke="none" 
	d="
M346.116516,339.958679 
	C346.401428,348.689911 346.686371,357.421173 346.444580,366.576202 
	C324.514740,367.000458 303.111511,366.965179 281.708740,367.047638 
	C279.102203,367.057678 276.498108,367.700867 273.892883,368.050659 
	C270.315399,364.916626 266.610504,361.909485 263.262299,358.547150 
	C262.546814,357.828644 262.527069,355.348541 263.207886,354.485199 
	C267.059326,349.601379 271.221649,344.962738 276.056763,340.107727 
	C299.929108,339.969513 323.022827,339.964111 346.116516,339.958679 
z"/>
<path fill="#4B70B1" opacity="1.000000" stroke="none" 
	d="
M237.117935,338.958954 
	C242.053101,344.619385 246.988281,350.279785 252.440903,356.533722 
	C249.550629,359.267242 246.866974,362.231262 243.715790,364.563660 
	C242.551361,365.425476 240.025253,365.394318 238.568527,364.752594 
	C231.819504,361.779541 225.573807,361.890320 219.059937,366.740509 
	C215.138138,366.160217 211.897522,365.123810 208.643921,365.081329 
	C194.486526,364.896362 180.325333,365.000702 166.165527,364.999908 
	C166.453964,356.620850 166.742401,348.241821 167.556519,339.431213 
	C191.094116,338.986084 214.106018,338.972504 237.117935,338.958954 
z"/>
<path fill="#2294C3" opacity="1.000000" stroke="none" 
	d="
M346.833130,148.997192 
	C347.217896,153.669617 347.883087,158.340988 347.900299,163.014771 
	C347.914551,166.878510 347.163239,170.745056 346.042816,174.641541 
	C344.039917,174.451050 342.745758,174.038803 341.450775,174.036209 
	C321.373993,173.996170 301.296997,173.983185 281.220367,174.055084 
	C279.443176,174.061462 277.668274,174.701614 275.892303,175.047409 
	C271.467499,170.061569 266.958191,165.145370 262.722168,160.003983 
	C262.177582,159.342972 262.625458,157.156479 263.348907,156.292114 
	C265.459625,153.770233 267.942902,151.560181 271.059875,149.102448 
	C296.837463,148.983749 321.835266,148.990463 346.833130,148.997192 
z"/>
<path fill="#3A7FB9" opacity="1.000000" stroke="none" 
	d="
M102.932060,264.411682 
	C129.562759,264.026459 156.239746,264.011383 183.374634,263.995422 
	C178.632507,276.823730 173.432480,289.653015 168.108612,302.787781 
	C148.689850,298.058472 129.661575,291.431519 113.573158,278.606110 
	C109.167740,275.094147 106.463333,269.448425 102.932060,264.411682 
z"/>
<path fill="#2790C1" opacity="1.000000" stroke="none" 
	d="
M180.241821,168.383392 
	C197.639526,167.986816 215.118408,167.950531 232.596619,168.040527 
	C235.734528,168.056671 238.869781,168.593765 242.413589,168.925659 
	C236.161087,177.797562 229.553619,186.674759 222.765915,195.411987 
	C222.032883,196.355545 220.293808,196.766800 218.955750,196.952866 
	C203.957291,199.038483 188.945938,201.031433 173.220230,203.145828 
	C172.345963,200.259644 170.931641,196.499100 170.186829,192.610336 
	C169.945114,191.348419 171.069275,189.158920 172.227463,188.402710 
	C179.849976,183.425858 182.341736,177.694092 180.241821,168.383392 
z"/>
<path fill="#3186BD" opacity="1.000000" stroke="none" 
	d="
M410.885040,250.747345 
	C384.169495,250.983658 357.505493,250.969971 330.367981,250.938263 
	C334.935211,238.029419 339.975922,225.138565 345.092224,212.054504 
	C346.359375,212.329987 347.926666,212.747803 349.519989,213.003174 
	C355.108887,213.898926 358.485840,215.560333 359.378540,222.680725 
	C361.000397,235.616959 377.839264,240.847504 387.352753,231.969955 
	C389.770508,229.713837 391.674072,229.798645 393.810577,231.404495 
	C400.084747,236.120346 406.117035,241.114990 410.128662,248.719208 
	C410.436218,249.529541 410.626953,249.771088 410.838348,249.996353 
	C410.871063,250.163345 410.903809,250.330338 410.885040,250.747345 
z"/>
<path fill="#2790C1" opacity="1.000000" stroke="none" 
	d="
M276.037231,175.363632 
	C277.668274,174.701614 279.443176,174.061462 281.220367,174.055084 
	C301.296997,173.983185 321.373993,173.996170 341.450775,174.036209 
	C342.745758,174.038803 344.039917,174.451050 345.692169,174.888733 
	C344.389984,183.698975 342.688812,192.285553 341.096466,200.892288 
	C340.644470,203.335495 339.979034,203.740417 337.192261,203.277466 
	C322.879730,200.899796 308.476105,199.074265 294.124146,196.923630 
	C292.815002,196.727463 291.271240,195.883881 290.473694,194.849548 
	C285.607452,188.538589 280.925537,182.085526 276.037231,175.363632 
z"/>
<path fill="#1C99C6" opacity="1.000000" stroke="none" 
	d="
M346.900208,148.570923 
	C321.835266,148.990463 296.837463,148.983749 271.363708,148.969818 
	C285.117035,135.800278 300.201935,123.630859 319.879333,120.336861 
	C331.917725,118.321617 339.242615,122.652184 344.753784,136.720154 
	C346.145325,140.272247 346.263824,144.323044 346.900208,148.570923 
z"/>
<path fill="#4476B4" opacity="1.000000" stroke="none" 
	d="
M346.068848,339.527344 
	C323.022827,339.964111 299.929108,339.969513 276.359253,339.966858 
	C281.012512,332.811798 285.728058,325.298920 291.524750,318.741882 
	C293.252869,316.787109 298.011963,317.517029 301.380737,317.006500 
	C313.172424,315.219574 324.990143,313.580170 336.733398,311.517059 
	C339.245239,311.075775 340.510895,311.138977 341.016235,313.694763 
	C342.690125,322.160767 344.353668,330.628784 346.068848,339.527344 
z"/>
<path fill="#516CAF" opacity="1.000000" stroke="none" 
	d="
M274.039185,368.355530 
	C276.498108,367.700867 279.102203,367.057678 281.708740,367.047638 
	C303.111511,366.965179 324.514740,367.000458 346.375824,366.999817 
	C346.927032,378.182800 339.805511,393.853363 326.779236,394.351196 
	C319.147125,394.642883 312.320251,393.156219 305.646912,390.181580 
	C293.873993,384.933838 283.462891,377.603088 274.039185,368.355530 
z"/>
<path fill="#4476B4" opacity="1.000000" stroke="none" 
	d="
M236.965118,338.649872 
	C214.106018,338.972504 191.094116,338.986084 167.624237,338.999329 
	C169.021103,329.640137 170.875961,320.281219 172.596115,311.601959 
	C189.087234,313.837799 204.492233,315.744751 219.808060,318.206635 
	C222.002411,318.559387 224.038010,321.376190 225.674133,323.429504 
	C229.538422,328.279144 233.117722,333.355896 236.965118,338.649872 
z"/>
<path fill="#516CAF" opacity="1.000000" stroke="none" 
	d="
M166.099426,365.413208 
	C180.325333,365.000702 194.486526,364.896362 208.643921,365.081329 
	C211.897522,365.123810 215.138138,366.160217 218.744263,366.897034 
	C213.064651,372.675476 211.536606,379.475250 214.443588,388.371918 
	C206.379135,390.629425 198.688614,394.111847 190.792877,394.665070 
	C180.280411,395.401581 172.406631,390.290833 168.131424,376.889771 
	C166.999054,373.340149 166.709732,369.521576 166.099426,365.413208 
z"/>
<path fill="#1C99C6" opacity="1.000000" stroke="none" 
	d="
M221.100098,124.342667 
	C242.438370,124.029297 263.953827,124.001266 285.469177,124.031639 
	C287.091309,124.033936 288.712891,124.452286 290.691986,124.894012 
	C279.618835,134.059937 268.188416,143.009109 256.670929,152.026459 
	C245.445206,143.341187 233.361237,133.991882 221.100098,124.342667 
z"/>
<path fill="#3880B9" opacity="1.000000" stroke="none" 
	d="
M305.416046,283.864319 
	C295.579193,283.692505 286.039032,283.373383 276.501923,282.980011 
	C274.220612,282.885895 271.949493,282.544403 269.489197,281.803223 
	C279.861267,275.692261 283.648712,266.268921 284.623474,254.997681 
	C293.713867,254.998322 302.348816,255.119278 310.975983,254.913147 
	C313.140594,254.861435 315.280151,253.759598 317.431213,253.140381 
	C317.499786,256.033508 318.548218,259.381134 317.455963,261.735840 
	C313.969513,269.252167 309.688202,276.399780 305.416046,283.864319 
z"/>
<path fill="#3A7FB9" opacity="1.000000" stroke="none" 
	d="
M250.039658,283.888428 
	C248.363022,284.548126 246.682449,285.786133 245.010422,285.774719 
	C233.250916,285.694489 221.493164,285.356903 209.308167,285.070099 
	C204.337402,276.922638 199.793320,268.806671 195.620850,260.326233 
	C207.272568,259.640625 218.552643,259.319397 229.901276,259.408386 
	C230.186554,261.271606 230.248688,262.768280 230.644821,264.170654 
	C233.498749,274.274261 240.390549,280.447144 250.039658,283.888428 
z"/>
<path fill="#3485BB" opacity="1.000000" stroke="none" 
	d="
M229.832733,258.998169 
	C218.552643,259.319397 207.272568,259.640625 195.577026,259.975952 
	C195.224991,258.069519 194.688202,255.858398 195.453400,254.277496 
	C199.202881,246.531021 203.298965,238.952316 207.575531,231.139481 
	C217.418549,231.309570 226.959747,231.627197 236.497864,232.019257 
	C238.779327,232.113022 241.050598,232.454773 243.539429,233.208557 
	C234.734482,239.743698 229.193329,247.668289 229.832733,258.998169 
z"/>
<path fill="#3485BB" opacity="1.000000" stroke="none" 
	d="
M317.264465,252.848877 
	C315.280151,253.759598 313.140594,254.861435 310.975983,254.913147 
	C302.348816,255.119278 293.713867,254.998322 284.443542,254.650833 
	C281.522827,242.867981 274.925232,235.126144 263.962769,231.120270 
	C266.057587,230.414474 268.141296,229.139328 270.249054,229.098358 
	C281.218842,228.885010 292.194763,228.985931 303.644958,228.970184 
	C308.446838,236.827744 312.772247,244.692566 317.264465,252.848877 
z"/>
<path fill="#2D8ABF" opacity="1.000000" stroke="none" 
	d="
M182.303787,230.692047 
	C179.725906,223.757782 177.366165,217.153595 174.796982,209.963303 
	C188.628250,207.763489 202.074951,205.624832 216.625793,203.310562 
	C207.445404,219.271042 198.972473,234.001541 189.989105,249.619492 
	C187.334305,243.007629 184.928116,237.014893 182.303787,230.692047 
z"/>
<path fill="#4476B4" opacity="1.000000" stroke="none" 
	d="
M239.718643,331.362793 
	C236.597839,327.403625 233.673187,323.750366 230.269241,319.498413 
	C248.182922,319.498413 265.072876,319.498413 283.266754,319.498413 
	C274.545685,330.372589 266.162231,340.825775 256.931549,352.335388 
	C250.869003,344.972473 245.391907,338.320557 239.718643,331.362793 
z"/>
<path fill="#3E7CB7" opacity="1.000000" stroke="none" 
	d="
M178.692566,293.689209 
	C182.440918,284.242706 185.980804,275.135468 189.854248,265.170044 
	C198.930695,280.903992 207.369690,295.532959 216.588287,311.513367 
	C202.216263,309.233032 188.835342,307.109955 174.967697,304.909668 
	C176.227264,301.012054 177.355682,297.520233 178.692566,293.689209 
z"/>
<path fill="#3E7CB7" opacity="1.000000" stroke="none" 
	d="
M336.050354,297.903931 
	C336.794739,300.287781 337.489380,302.270172 338.424164,304.937836 
	C324.430969,307.127960 310.957062,309.236816 296.806183,311.451599 
	C305.892090,295.777008 314.453217,281.007721 323.671509,265.104706 
	C327.950317,276.348297 331.975494,286.925385 336.050354,297.903931 
z"/>
<path fill="#2D8ABF" opacity="1.000000" stroke="none" 
	d="
M310.265991,225.778824 
	C305.754669,218.583176 301.500641,211.658142 296.401062,203.356628 
	C311.174713,205.654694 324.569519,207.738266 338.933136,209.972549 
	C333.711792,223.650131 328.859650,236.360535 323.487976,250.431870 
	C318.697266,241.422104 314.610291,233.735764 310.265991,225.778824 
z"/>
<path fill="#2790C1" opacity="1.000000" stroke="none" 
	d="
M265.836823,194.997406 
	C254.020615,194.997360 242.686890,194.997360 230.684387,194.997360 
	C235.545792,188.739624 240.337265,182.444962 245.274231,176.266571 
	C248.042343,172.802414 251.388351,169.757294 253.845901,166.101196 
	C255.839706,163.135010 257.387299,163.536163 259.190002,165.723099 
	C265.847992,173.800339 272.430420,181.940125 279.003937,190.086517 
	C280.303345,191.696838 281.437317,193.440628 283.532928,196.353439 
	C276.907227,195.831512 271.613251,195.414474 265.836823,194.997406 
z"/>
<path fill="#2D8ABF" opacity="1.000000" stroke="none" 
	d="
M386.998291,218.911560 
	C386.504242,225.667313 381.627197,230.374664 375.965149,229.983994 
	C369.764618,229.556137 364.909058,224.449036 365.002594,218.453537 
	C365.106842,211.768753 369.237579,207.983521 376.411530,207.998734 
	C383.543701,208.013855 386.856445,211.296051 386.998291,218.911560 
z"/>
<path fill="#516CAF" opacity="1.000000" stroke="none" 
	d="
M241.938965,380.830872 
	C239.306274,389.004486 236.765823,390.927612 229.949738,391.049530 
	C225.129974,391.135742 221.926117,388.811493 220.422348,384.657043 
	C218.809921,380.202423 219.105972,375.392426 222.762802,372.016693 
	C225.989792,369.037750 230.000458,368.032898 234.627533,369.790192 
	C239.750885,371.735962 241.214813,375.725403 241.938965,380.830872 
z"/>
<path fill="#2492C2" opacity="1.000000" stroke="none" 
	d="
M152.294189,174.640823 
	C152.531754,168.208893 155.275986,163.825806 161.425171,162.282547 
	C166.203079,161.083435 169.681030,163.561295 172.500168,167.029755 
	C175.202286,170.354202 175.384476,174.124649 173.546707,177.911728 
	C171.800507,181.510071 169.220261,183.946793 164.835144,184.029404 
	C157.493820,184.167694 153.832993,181.584442 152.294189,174.640823 
z"/>
<path fill="#3880B9" opacity="1.000000" stroke="none" 
	d="
M410.855804,249.732666 
	C410.626953,249.771088 410.436218,249.529541 410.150757,249.071472 
	C410.314697,249.070496 410.593964,249.269730 410.855804,249.732666 
z"/>
<path fill="#000000" opacity="1.000000" stroke="none" 
	d="
M263.544189,231.069153 
	C274.925232,235.126144 281.522827,242.867981 283.985229,254.650040 
	C283.648712,266.268921 279.861267,275.692261 269.133911,281.584564 
	C263.124664,284.216492 257.101349,284.959412 250.458801,283.932251 
	C240.390549,280.447144 233.498749,274.274261 230.644821,264.170654 
	C230.248688,262.768280 230.186554,261.271606 229.901276,259.408386 
	C229.193329,247.668289 234.734482,239.743698 243.894592,233.427429 
	C246.308777,232.415451 248.546265,231.287399 250.860153,231.099289 
	C254.923981,230.768921 259.034607,231.013992 263.544189,231.069153 
M276.991486,261.024658 
	C276.995300,259.695587 276.988007,258.366333 277.004669,257.037445 
	C277.148376,245.589157 269.396149,239.091507 260.755554,237.126297 
	C251.276917,234.970490 240.065933,241.726486 237.185577,250.595230 
	C233.998245,260.409210 238.164505,270.373138 246.817459,275.466766 
	C256.125244,280.945862 272.907837,277.669830 276.991486,261.024658 
z"/>
<path fill="#3880B9" opacity="1.000000" stroke="none" 
	d="
M276.969818,261.456238 
	C272.907837,277.669830 256.125244,280.945862 246.817459,275.466766 
	C238.164505,270.373138 233.998245,260.409210 237.185577,250.595230 
	C240.065933,241.726486 251.276917,234.970490 260.755554,237.126297 
	C269.396149,239.091507 277.148376,245.589157 277.004669,257.037445 
	C276.988007,258.366333 276.995300,259.695587 276.969818,261.456238 
z"/>
</svg>